<?xml version="1.0" encoding="utf-8"?>
<!-- Generator: Adobe Illustrator 27.5.0, SVG Export Plug-In . SVG Version: 6.00 Build 0)  -->
<svg version="1.1" xmlns="http://www.w3.org/2000/svg" xmlns:xlink="http://www.w3.org/1999/xlink" x="0px" y="0px"
	 viewBox="0 0 500 500" style="enable-background:new 0 0 500 500;" xml:space="preserve">
<g id="Background_Simple">
	<g>
		<path style="fill:#C6FF00;" d="M297.645,74.556c-43.392-1.767-89.391-2.522-131.554,10.23
			c-43.484,13.152-73.356,47.837-81.839,90.626c-3.49,17.604-2.957,35.904,1.357,53.33c2.139,8.638,4.878,18.509,9.704,26.176
			c8.345,13.258,19.895,26.271,18.096,43.223c-1.965,18.518-14.851,34.467-13.923,53.585c1.769,36.448,82.039,82.388,200.696,61.96
			c118.658-20.427,126.62-71.284,108.042-113.665s-21.231-35.6-1.769-76.285C425.918,183.051,408.43,79.067,297.645,74.556z"/>
		<path style="opacity:0.7;fill:#FFFFFF;" d="M297.645,74.556c-43.392-1.767-89.391-2.522-131.554,10.23
			c-43.484,13.152-73.356,47.837-81.839,90.626c-3.49,17.604-2.957,35.904,1.357,53.33c2.139,8.638,4.878,18.509,9.704,26.176
			c8.345,13.258,19.895,26.271,18.096,43.223c-1.965,18.518-14.851,34.467-13.923,53.585c1.769,36.448,82.039,82.388,200.696,61.96
			c118.658-20.427,126.62-71.284,108.042-113.665s-21.231-35.6-1.769-76.285C425.918,183.051,408.43,79.067,297.645,74.556z"/>
	</g>
</g>
<g id="Twitter">
	<path id="XMLID_9_" style="fill:#FFFFFF;" d="M116.982,333.534c24.424,15.659,53.432,24.797,84.595,24.797
		c102.464,0,160.351-86.542,156.865-164.168c10.777-7.774,20.137-17.492,27.538-28.569c-9.904,4.389-20.542,7.358-31.696,8.687
		c11.388-6.816,20.14-17.633,24.259-30.531c-10.665,6.326-22.477,10.923-35.036,13.399c-10.072-10.727-24.414-17.424-40.292-17.424
		c-35.617,0-61.797,33.24-53.756,67.761c-45.867-2.299-86.534-24.271-113.744-57.668c-14.46,24.812-7.5,57.265,17.079,73.687
		c-9.051-0.285-17.571-2.776-25.008-6.907c-0.595,25.573,17.727,49.483,44.266,54.815c-7.769,2.115-16.278,2.592-24.913,0.941
		c7.009,21.933,27.394,37.878,51.547,38.328C175.488,328.872,146.259,336.993,116.982,333.534z"/>
</g>
<g id="Clouds">
	<g>
		<g>
			<defs>
				<path id="XMLID_2_" d="M386.789,81.257c-2.388-4.883-7.402-8.247-13.204-8.247c-4.803,0-9.067,2.306-11.747,5.87
					c-3.493-5.824-9.866-9.723-17.152-9.723c-7.454,0-13.95,4.083-17.387,10.132c-0.225-0.007-0.449-0.017-0.675-0.017
					c-2.615,0-5.118,0.477-7.431,1.343c-3.866-9.157-12.602-15.755-22.967-16.541c-3.546-7.253-10.994-12.249-19.611-12.249
					c-7.134,0-13.467,3.424-17.448,8.718c-5.188-8.65-14.654-14.441-25.475-14.441c-11.071,0-20.72,6.064-25.824,15.048
					c-0.334-0.01-0.666-0.025-1.003-0.025c-13.44,0-24.906,8.427-29.42,20.282c-0.398-0.057-0.795-0.118-1.201-0.149
					c-2.388-4.883-7.402-8.247-13.204-8.247c-4.803,0-9.067,2.306-11.747,5.87c-3.493-5.824-9.866-9.723-17.152-9.723
					c-7.454,0-13.95,4.083-17.387,10.132c-0.225-0.007-0.449-0.017-0.675-0.017c-11.704,0-21.193,9.488-21.193,21.193
					c0,11.705,9.488,21.193,21.193,21.193c6.086,0,11.569-2.569,15.435-6.678c2.685,2.92,6.536,4.752,10.816,4.752
					c2.936,0,5.669-0.865,7.964-2.349c2.685,2.924,6.538,4.757,10.821,4.757c4.202,0,7.989-1.767,10.666-4.595
					c0.996,0.168,2.018,0.26,3.061,0.26c3.623,0,6.991-1.066,9.833-2.883c5.691,5.658,13.532,9.156,22.191,9.156
					c9.04,0,17.183-3.816,22.924-9.919c3.988,4.337,9.708,7.057,16.064,7.057c4.361,0,8.42-1.285,11.828-3.488
					c3.988,4.342,9.711,7.065,16.072,7.065c6.241,0,11.865-2.624,15.842-6.824c1.479,0.249,2.996,0.386,4.546,0.386
					c5.841,0,11.246-1.848,15.678-4.983c3.874,5.037,9.958,8.286,16.804,8.286c6.086,0,11.569-2.569,15.435-6.678
					c2.685,2.92,6.536,4.752,10.816,4.752c2.936,0,5.669-0.865,7.964-2.349c2.685,2.924,6.538,4.757,10.821,4.757
					c4.202,0,7.989-1.767,10.666-4.595c0.996,0.168,2.017,0.26,3.061,0.26c10.108,0,18.303-8.194,18.303-18.303
					C403.689,89.865,396.241,81.974,386.789,81.257z"/>
			</defs>
			<use xlink:href="#XMLID_2_"  style="overflow:visible;fill:#263238;"/>
			<clipPath id="XMLID_00000059278229304779696020000008765624747263772034_">
				<use xlink:href="#XMLID_2_"  style="overflow:visible;"/>
			</clipPath>
			<path style="opacity:0.2;clip-path:url(#XMLID_00000059278229304779696020000008765624747263772034_);fill:#FFFFFF;" d="
				M386.789,81.257c-2.388-4.883-7.402-8.247-13.204-8.247c-4.803,0-9.067,2.306-11.747,5.87c-3.493-5.824-9.866-9.723-17.152-9.723
				c-7.454,0-13.95,4.083-17.387,10.132c-0.225-0.007-0.449-0.017-0.675-0.017c-2.615,0-5.118,0.477-7.431,1.343
				c-3.866-9.157-12.602-15.755-22.967-16.541c-3.546-7.253-10.994-12.249-19.611-12.249c-7.134,0-13.467,3.424-17.448,8.718
				c-5.188-8.65-14.654-14.441-25.475-14.441c-11.071,0-20.72,6.064-25.824,15.048c-0.334-0.01-0.666-0.025-1.003-0.025
				c-13.44,0-24.906,8.427-29.42,20.282c-0.398-0.057-0.795-0.118-1.201-0.149c-2.388-4.883-7.402-8.247-13.204-8.247
				c-4.803,0-9.067,2.306-11.747,5.87c-3.493-5.824-9.866-9.723-17.152-9.723c-7.454,0-13.95,4.083-17.387,10.132
				c-0.225-0.007-0.449-0.017-0.675-0.017c-11.704,0-21.193,9.488-21.193,21.193c0,11.705,9.488,21.193,21.193,21.193
				c6.086,0,11.569-2.569,15.435-6.678c2.685,2.92,6.536,4.752,10.816,4.752c2.936,0,5.669-0.865,7.964-2.349
				c2.685,2.924,6.538,4.757,10.821,4.757c4.202,0,7.989-1.767,10.666-4.595c0.996,0.168,2.018,0.26,3.061,0.26
				c3.623,0,6.991-1.066,9.833-2.883c5.691,5.658,13.532,9.156,22.191,9.156c9.04,0,17.183-3.816,22.924-9.919
				c3.988,4.337,9.708,7.057,16.064,7.057c4.361,0,8.42-1.285,11.828-3.488c3.988,4.342,9.711,7.065,16.072,7.065
				c6.241,0,11.865-2.624,15.842-6.824c1.479,0.249,2.996,0.386,4.546,0.386c5.841,0,11.246-1.848,15.678-4.983
				c3.874,5.037,9.958,8.286,16.804,8.286c6.086,0,11.569-2.569,15.435-6.678c2.685,2.92,6.536,4.752,10.816,4.752
				c2.936,0,5.669-0.865,7.964-2.349c2.685,2.924,6.538,4.757,10.821,4.757c4.202,0,7.989-1.767,10.666-4.595
				c0.996,0.168,2.017,0.26,3.061,0.26c10.108,0,18.303-8.194,18.303-18.303C403.689,89.865,396.241,81.974,386.789,81.257z"/>
		</g>
		<polygon style="fill:#FFFFFF;" points="239.174,99.491 232.803,116.483 242.007,116.483 230.679,144.803 255.458,115.067 
			245.546,110.819 256.874,95.951 		"/>
		<path style="fill:#263238;" d="M386.789,89.353c-2.388-4.883-7.402-8.247-13.204-8.247c-4.803,0-9.067,2.306-11.747,5.87
			c-3.493-5.824-9.866-9.723-17.152-9.723c-7.454,0-13.95,4.083-17.387,10.132c-0.225-0.007-0.449-0.017-0.675-0.017
			c-2.615,0-5.118,0.477-7.431,1.343c-3.866-9.157-12.602-15.755-22.967-16.541c-3.546-7.253-10.994-12.249-19.611-12.249
			c-7.134,0-13.467,3.424-17.448,8.718c-5.188-8.65-14.654-14.441-25.475-14.441c-11.071,0-20.72,6.065-25.824,15.048
			c-0.334-0.011-0.666-0.025-1.003-0.025c-13.44,0-24.906,8.427-29.42,20.282c-0.398-0.057-0.795-0.118-1.201-0.149
			c-2.388-4.883-7.402-8.247-13.204-8.247c-4.803,0-9.067,2.306-11.747,5.87c-3.493-5.824-9.866-9.723-17.152-9.723
			c-7.454,0-13.95,4.083-17.387,10.132c-0.225-0.007-0.449-0.017-0.675-0.017c-7.315,0-13.765,3.706-17.573,9.343
			c3.809,5.637,10.258,9.343,17.573,9.343c6.086,0,11.569-2.57,15.435-6.678c2.685,2.92,6.536,4.752,10.816,4.752
			c2.936,0,5.669-0.865,7.964-2.349c2.685,2.924,6.538,4.757,10.821,4.757c4.202,0,7.989-1.767,10.666-4.595
			c0.996,0.168,2.018,0.26,3.061,0.26c3.623,0,6.991-1.066,9.833-2.883c5.691,5.658,13.532,9.156,22.191,9.156
			c9.04,0,17.183-3.816,22.924-9.919c3.988,4.337,9.708,7.057,16.064,7.057c4.361,0,8.42-1.285,11.828-3.488
			c3.988,4.342,9.711,7.065,16.072,7.065c6.241,0,11.865-2.624,15.842-6.824c1.479,0.249,2.996,0.386,4.546,0.386
			c5.841,0,11.246-1.848,15.678-4.983c3.874,5.037,9.958,8.286,16.804,8.286c6.086,0,11.569-2.57,15.435-6.678
			c2.685,2.92,6.536,4.752,10.816,4.752c2.936,0,5.669-0.865,7.964-2.349c2.685,2.924,6.538,4.757,10.821,4.757
			c4.202,0,7.989-1.767,10.666-4.595c0.996,0.168,2.017,0.26,3.061,0.26c5.582,0,10.571-2.506,13.928-6.446
			C396.241,92.146,391.804,89.733,386.789,89.353z"/>
	</g>
</g>
<g id="Shadow">
	<g>
		<ellipse style="fill:#C6FF00;" cx="249.432" cy="437.3" rx="66.79" ry="12.385"/>
		<ellipse style="opacity:0.5;fill:#FFFFFF;" cx="249.432" cy="437.3" rx="66.79" ry="12.385"/>
	</g>
</g>
<g id="Character_1_">
	<g>
		<g>
			<g>
				<path style="fill:#C6FF00;stroke:#263238;stroke-linecap:round;stroke-linejoin:round;stroke-miterlimit:10;" d="
					M216.815,273.554c0,0,3.515,3.906,5.272,6.054c1.758,2.148,6.249,1.172,6.249,1.172l4.296,2.539l3.32-5.468
					c0,0-2.929-3.124-4.491-4.491c-1.562-1.367-5.077-3.906-8.006-3.515C220.525,270.234,216.62,270.43,216.815,273.554z"/>
				<g>
					<path style="fill:#263238;" d="M214.719,264.761l-4.87,3.812c-0.682,0.534-0.629,1.543,0.107,2.009l13.742,8.707
						c0.523,0.331,1.219,0.266,1.663-0.156l3.928-3.733c0.574-0.545,0.498-1.449-0.16-1.901l-12.8-8.785
						C215.842,264.379,215.181,264.399,214.719,264.761z"/>
					<polygon style="fill:#FFFFFF;stroke:#263238;stroke-linecap:round;stroke-linejoin:round;stroke-miterlimit:10;" points="
						215.914,266.194 212.163,268.966 223.624,276.887 227.791,273.917 					"/>
				</g>
				<path style="fill:#C6FF00;stroke:#263238;stroke-linecap:round;stroke-linejoin:round;stroke-miterlimit:10;" d="
					M231.461,273.359c0,0-4.687-6.054-6.249-6.054c-1.562,0-3.71,0.976-4.687,1.367c-0.976,0.391-2.929,1.758-0.976,2.343
					c1.953,0.586,4.882-0.195,4.882-0.195s3.195,5.413,5.272,5.663"/>
				<path style="fill:#C6FF00;stroke:#263238;stroke-linecap:round;stroke-linejoin:round;stroke-miterlimit:10;" d="
					M233.414,275.507l-4.101,8.006c0,0,18.746,12.888,29.877,11.521l1.953-11.717C261.143,283.318,243.373,280.194,233.414,275.507z
					"/>
			</g>
			<g>
				<g>
					<g>
						<path style="fill:#C6FF00;stroke:#263238;stroke-linecap:round;stroke-linejoin:round;stroke-miterlimit:10;" d="
							M281.448,333.085c0,0-2.871,17.223-1.076,27.629c1.794,10.405,3.947,12.917,6.1,19.735c2.153,6.817,2.153,15.429,2.153,15.429
							l-6.872,0.725c0,0-8.916-20.46-9.633-37.324s2.512-26.911,2.512-26.911L281.448,333.085z"/>
						<path style="fill:#263238;stroke:#263238;stroke-linecap:round;stroke-linejoin:round;stroke-miterlimit:10;" d="
							M279.246,394.041c0,0,10.91-2.064,11.205-0.59c0.295,1.474-0.295,2.654,1.18,3.244c1.474,0.59-0.295,2.064-0.295,3.833
							c0,1.769,0.885,2.949,1.769,4.718c0.885,1.769-2.064,3.539-2.064,4.718s0.295,2.064,0.885,3.833
							c0.59,1.769,0.295,1.474-0.885,3.244c-1.18,1.769,1.474,5.308,0.885,7.077c-0.59,1.769-2.949,2.064-2.064,3.244
							c0.885,1.18,1.769,4.128,1.769,5.898c0,1.769-2.064,5.898-2.064,5.898s-2.949,0.59-6.487,0c-3.538-0.59-7.077-1.18-7.077-1.18
							s-6.193,1.18-9.436,1.18c-3.244,0-6.782-3.539-5.013-3.833c1.769-0.295,10.911-3.539,13.565-5.013
							c2.654-1.474,1.474-4.718,1.474-7.077c0-2.359,1.769-3.539,1.769-5.308c0-1.769-2.654-4.128-2.949-5.603
							c-0.295-1.474,0.295-2.654,0.295-3.539c0-0.885-1.769-1.769-1.769-2.949s2.064-4.423,2.064-4.423s-1.18-2.064-1.474-2.949
							c-0.295-0.885-0.295-2.949-0.295-2.949S273.644,394.041,279.246,394.041z"/>
						<path style="fill:#C6FF00;stroke:#263238;stroke-linecap:round;stroke-linejoin:round;stroke-miterlimit:10;" d="
							M285.281,331.884c0,0-4.09,7.458-5.052,16.601c-0.962,9.142-1.684,17.322,0.962,23.096c2.646,5.774,4.09,14.195,3.609,17.803
							c-0.481,3.609-2.006,10.11-2.006,10.11l-14.113-1.93c0,0,0.669-16.874-3.662-26.738c-4.331-9.864-4.061-28.858-4.061-35.835
							c0-6.977,0.481-10.105,0.481-10.105l25.286,3.389L285.281,331.884z"/>
					</g>
					<path style="fill:#263238;stroke:#263238;stroke-linecap:round;stroke-linejoin:round;stroke-miterlimit:10;" d="
						M284.259,395.81c0,0-16.218-3.244-17.693-2.064s-1.769,3.833-1.769,3.833s-1.474,3.244-0.59,4.128
						c0.885,0.885,2.359,2.654,2.359,2.654s-2.064,2.359-1.769,3.244c0.295,0.885,2.359,2.064,2.359,2.949
						c0,0.885-2.064,2.064-1.769,3.538c0.295,1.474,1.474,3.244,1.474,4.718s-1.18,5.603-2.064,8.846
						c-0.885,3.244-0.885,3.833-3.539,6.487c-2.654,2.654-14.449,3.539-14.449,5.603c0,2.064,12.08,4.426,20.642,2.654
						c6.93-1.434,13.565,0.59,14.154-2.064c0.59-2.654,2.359-6.193,2.064-7.962c-0.295-1.769-2.359-3.538-2.359-5.308
						c0-1.769,2.064-5.308,2.359-6.487c0.295-1.18-2.359-3.244-2.064-4.128c0.295-0.885,2.359-0.885,2.359-3.538
						s-1.769-3.539-0.885-4.718c0.885-1.18,2.949-4.128,2.949-5.013c0-0.885-1.474-2.654-1.474-2.654
						S285.734,397.285,284.259,395.81z"/>
				</g>
				<g>
					<path style="fill:#C6FF00;stroke:#263238;stroke-linecap:round;stroke-linejoin:round;stroke-miterlimit:10;" d="
						M257.135,256.65c0,0-5.105,9.005-4.938,12.017c0.167,3.012,5.355,14.056,5.355,15.395c0,0.388-4.859,9.986-7.2,18.725
						c-5.728,21.382-12.388,54.1-12.388,54.1s22.632,4.693,35.852,5.196c13.22,0.502,24.598-4.016,24.598-4.016l-8.237-45.443
						c-0.21-1.157-0.488-2.301-0.834-3.426l-5.378-17.479l8.846-31.847c0,0-9.49-16.639-16.852-17.643
						S258.641,253.972,257.135,256.65z"/>
					<path style="fill:none;stroke:#263238;stroke-linecap:round;stroke-linejoin:round;stroke-miterlimit:10;" d="M297.547,354.434
						c0,0-10.864,3.68-21.728,4.03"/>
					<path style="fill:none;stroke:#263238;stroke-linecap:round;stroke-linejoin:round;stroke-miterlimit:10;" d="M279.186,293.551
						c0,0,3.735,6.608,5.746,24.42"/>
					<path style="fill:none;stroke:#263238;stroke-linecap:round;stroke-linejoin:round;stroke-miterlimit:10;" d="M275.738,294.7
						c0,0,2.011,9.194,2.011,14.652"/>
					<path style="fill:none;stroke:#263238;stroke-linecap:round;stroke-linejoin:round;stroke-miterlimit:10;" d="M256.489,298.722
						c0,0-4.022,11.492-4.884,18.1"/>
					<path style="fill:none;stroke:#263238;stroke-linecap:round;stroke-linejoin:round;stroke-miterlimit:10;" d="M271.614,358.464
						c0,0-6.483-0.35-10.338-1.051"/>
					<path style="fill:none;stroke:#263238;stroke-linecap:round;stroke-linejoin:round;stroke-miterlimit:10;" d="M256.489,357.043
						c0,0-10.822-1.041-16.604-2.793"/>
					<path style="fill:#C6FF00;stroke:#263238;stroke-linecap:round;stroke-linejoin:round;stroke-miterlimit:10;" d="
						M259.411,252.667c0,0-1.138-2.276-0.853-4.836c0.285-2.56,8.25-11.095,14.508-12.517c6.259-1.422,8.25,1.707,8.819,3.698
						c0.569,1.991,1.138,5.121,0,5.974c-1.138,0.853-11.095,3.698-14.793,5.69C263.393,252.667,259.695,253.52,259.411,252.667z"/>
					<path style="fill:#C6FF00;stroke:#263238;stroke-linecap:round;stroke-linejoin:round;stroke-miterlimit:10;" d="
						M265.669,238.728c0,0,6.21-1.793,8.25,0.854c6.472,8.397,10.241,22.758,10.241,33.284c0,4.267,0.569,6.258,1.422,6.258
						c0.854,0,5.974-5.405,5.974-5.405s-0.854-12.232-3.983-20.767c-3.129-8.534-7.965-16.5-10.81-17.638
						C273.919,234.176,266.523,236.736,265.669,238.728z"/>
				</g>
				<g>
					<g>
						<path style="fill:#263238;stroke:#263238;stroke-linecap:round;stroke-linejoin:round;stroke-miterlimit:10;" d="
							M239.931,209.025c0,0,2.463,13.239-5.356,16.66c-7.819,3.421-16.635,4.354-19.568,10.707
							c-2.932,6.353,4.478,9.996,11.703,8.35c7.225-1.646,5.89-4.44,8.822,2.401c2.932,6.842,6.89,7.366,15.638,2.932
							c8.748-4.434,16.625-12.77,14.661-27.856C263.867,207.134,244.107,199.863,239.931,209.025z"/>
						<path style="fill:#FFFFFF;stroke:#263238;stroke-linecap:round;stroke-linejoin:round;stroke-miterlimit:10;" d="
							M239.911,219.086c0,0-0.803,4.348-0.594,6.705c0.209,2.357,1.575,4.374,1.465,5.81c-0.11,1.435-2.089,4.58-1.576,5.01
							c0.513,0.43,3.02,0.564,3.02,0.564s3.524,4.914,4.485,6.374c0.961,1.459,2.157,2.897,3.766,2.28
							c1.608-0.618,4.811-3.82,4.811-3.82s4.437,0.824,7.003,2.973c2.566,2.148,6.193,7.077,6.193,7.077l5.488-11.874
							c0,0-4.813-3.375-6.609-4.879c-1.796-1.504-4.831-4.918-4.831-4.918s2.924-4.535-0.221-6.514
							c-2.75-1.73-3.924,1.298-4.568,2.068c-0.645,0.77-0.645,0.77-0.645,0.77s-2.095-2.19-3.787-2.515
							c-1.692-0.325-4.759,1.253-7.519-0.403C243.032,222.135,239.911,219.086,239.911,219.086z"/>
						
							<path style="fill:none;stroke:#263238;stroke-width:0.75;stroke-linecap:round;stroke-linejoin:round;stroke-miterlimit:10;" d="
							M242.596,228.449l1.184,2.453c0,0,1.553-0.282,1.987-1.37"/>
						
							<path style="fill:none;stroke:#263238;stroke-width:0.75;stroke-linecap:round;stroke-linejoin:round;stroke-miterlimit:10;" d="
							M241.588,225.946c0,0,0.433-1.82,2.402-1.044"/>
						
							<path style="fill:none;stroke:#263238;stroke-width:0.75;stroke-linecap:round;stroke-linejoin:round;stroke-miterlimit:10;" d="
							M245.499,239.26c0,0,1.886-0.167,2.897-2.157"/>
					</g>
					<path style="fill:#263238;stroke:#263238;stroke-linecap:round;stroke-linejoin:round;stroke-miterlimit:10;" d="
						M295.539,219.383c-2.259-1.924-4.863-2.762-7.609-3.035c-0.139-0.113-0.282-0.234-0.42-0.343
						c-3.206-2.531-11.587-3.459-18.373-1.687c-1.068-0.678-2.005-1.531-2.615-2.616c-2.56-4.552-5.69-8.534-13.371-8.534
						c-7.681,0-17.353,5.121-18.775,11.095c-0.922,3.874,2.221,5.115,4.546,5.51c1.121,0.536,2.281,0.18,2.281,0.18
						s1.707,4.552,6.258,5.121c4.552,0.569,5.849-0.878,10.28,0.867c1.911,0.753,2.694,1.915,3.22,3.607
						c0.171,1.804,0.069,3.978-0.675,6.423c-2.117,6.957-6.957,5.747-11.192,15.125c-4.235,9.377-2.42,19.057,3.327,13.915
						s17.784-16.8,16.061-12.952s2.088,6.6,9.953,2.667c7.864-3.932,4.538,3.024,13.008,1.815
						C305.335,254.556,303.499,226.163,295.539,219.383z"/>
					<path style="fill:#FFFFFF;stroke:#263238;stroke-linecap:round;stroke-linejoin:round;stroke-miterlimit:10;" d="
						M254.369,228.689c0,0-1.072-3.98,1.531-4.899c2.602-0.918,4.439,4.593,4.133,6.736c-0.306,2.143-3.368,3.521-3.368,3.521"/>
				</g>
			</g>
			<path style="fill:none;stroke:#263238;stroke-width:3;stroke-linecap:round;stroke-linejoin:round;stroke-miterlimit:10;" d="
				M235.229,276.339l-0.381,6.628c0,0-1.243,7.1,2.793,5.635c3.697-1.342,2.495-9.179,2.495-9.179"/>
			
				<line style="fill:none;stroke:#263238;stroke-width:2;stroke-linecap:round;stroke-linejoin:round;stroke-miterlimit:10;" x1="241.005" y1="175.816" x2="235.229" y2="276.339"/>
			<g>
				<path style="fill:#C6FF00;stroke:#263238;stroke-linecap:round;stroke-linejoin:round;stroke-miterlimit:10;" d="
					M241.271,261.289l-1.246-4.692c-0.462-1.739-2.068-3.008-3.862-2.87c-0.529,0.041-0.982,0.201-1.224,0.566
					C234.068,255.61,241.271,261.289,241.271,261.289z"/>
				<path style="fill:#C6FF00;stroke:#263238;stroke-linecap:round;stroke-linejoin:round;stroke-miterlimit:10;" d="
					M239.796,258.291c0,0-3.839-4.375-5.561-4.731c-0.669-0.139-1.444,0.198-2.14,0.66c-1.271,0.844-2.214,2.096-2.761,3.519
					c-0.656,1.706-1.418,4.319-0.897,6.28c0.841,3.166,3.819,4.68,5.194,5.264c1.375,0.584,2.523,0.821,2.523,0.821l3.126,5.135
					l7.174-7.193L239.796,258.291z"/>
				<path style="fill:#C6FF00;stroke:#263238;stroke-linecap:round;stroke-linejoin:round;stroke-miterlimit:10;" d="
					M279.36,260.299c2.051,4.981,1.172,16.116,0,18.753c-1.172,2.637-10.255,22.269-16.116,21.39
					c-5.86-0.879-11.134-7.618-14.358-11.135c-3.223-3.516-12.987-14.398-12.987-14.398l8.592-11.973l13.479,14.944l3.223,2.637
					c0,0-0.586-21.097,5.567-24.613"/>
				<path style="fill:#263238;stroke:#263238;stroke-linecap:round;stroke-linejoin:round;stroke-miterlimit:10;" d="
					M244.893,277.564c0-0.733-0.594-1.327-1.327-1.327c-0.733,0-1.327,0.594-1.327,1.327c0,0.733,0.594,1.327,1.327,1.327
					C244.299,278.891,244.893,278.297,244.893,277.564z"/>
			</g>
		</g>
		<g>
			<g>
				<defs>
					<path id="XMLID_1_" d="M236.602,169.122c0,0-24.132,1.688-38.045,6.778c-13.913,5.089-25.768,21.937-25.768,21.937
						s3.545,8.018-0.107,15.134c0,0,34.654,3.098,51.523,14.266c0,0,38.512-10.892,67.2-3.844c0,0,7.982-13.867,23.563-17.186
						c0,0-7.588-10.891-19.008-20.177C284.538,176.744,253.757,170.666,236.602,169.122z"/>
				</defs>
				<use xlink:href="#XMLID_1_"  style="overflow:visible;fill:#263238;"/>
				<clipPath id="XMLID_00000165207615005016037310000008020797328944940161_">
					<use xlink:href="#XMLID_1_"  style="overflow:visible;"/>
				</clipPath>
				<path style="opacity:0.15;clip-path:url(#XMLID_00000165207615005016037310000008020797328944940161_);fill:#FFFFFF;" d="
					M289.76,223.024c-5.2-13.627-20.138-45.443-48.376-52.728l-2.904,5.074c0,0-8.813,22.545-14.158,51.833
					C226.605,226.572,262.192,216.968,289.76,223.024z"/>
				<path style="opacity:0.1;clip-path:url(#XMLID_00000165207615005016037310000008020797328944940161_);fill:#FFFFFF;" d="
					M172.747,212.822c-0.025,0.049-0.041,0.099-0.066,0.148c0,0,34.654,3.098,51.523,14.266c0,0,0.041-0.012,0.118-0.033
					c5.346-29.289,14.158-51.833,14.158-51.833l2.904-5.074C202.024,175.9,178.649,204.676,172.747,212.822z"/>
				<path style="opacity:0.39;clip-path:url(#XMLID_00000165207615005016037310000008020797328944940161_);fill:#FFFFFF;" d="
					M314.966,206.206c0,0-7.588-10.891-19.008-20.176c-10.283-8.361-36.262-14.121-53.858-16.312c0.435,0.355,0.915,0.751,1.451,1.2
					c26.838,8.309,41.142,38.835,46.208,52.106c0.55,0.121,1.102,0.236,1.645,0.369
					C291.403,223.393,299.386,209.526,314.966,206.206z"/>
				
					<use xlink:href="#XMLID_1_"  style="overflow:visible;fill:none;stroke:#263238;stroke-linecap:round;stroke-linejoin:round;stroke-miterlimit:10;"/>
			</g>
			
				<line style="fill:none;stroke:#263238;stroke-width:2;stroke-linecap:round;stroke-linejoin:round;stroke-miterlimit:10;" x1="241.435" y1="170.259" x2="242.012" y2="165.439"/>
		</g>
	</g>
</g>
<g id="Rain">
	<g>
		
			<line style="fill:none;stroke:#263238;stroke-linecap:round;stroke-linejoin:round;stroke-miterlimit:10;" x1="144.93" y1="119.311" x2="140.381" y2="150.844"/>
		
			<line style="fill:none;stroke:#263238;stroke-linecap:round;stroke-linejoin:round;stroke-miterlimit:10;" x1="194.164" y1="140.005" x2="189.614" y2="171.538"/>
		
			<line style="fill:none;stroke:#263238;stroke-linecap:round;stroke-linejoin:round;stroke-miterlimit:10;" x1="133.911" y1="195.692" x2="130.979" y2="216.013"/>
		
			<line style="fill:none;stroke:#263238;stroke-linecap:round;stroke-linejoin:round;stroke-miterlimit:10;" x1="159.88" y1="169.395" x2="156.948" y2="189.716"/>
		
			<line style="fill:none;stroke:#263238;stroke-linecap:round;stroke-linejoin:round;stroke-miterlimit:10;" x1="126.733" y1="245.444" x2="122.184" y2="276.977"/>
		
			<line style="fill:none;stroke:#263238;stroke-linecap:round;stroke-linejoin:round;stroke-miterlimit:10;" x1="342.633" y1="152.125" x2="338.084" y2="183.658"/>
		
			<line style="fill:none;stroke:#263238;stroke-linecap:round;stroke-linejoin:round;stroke-miterlimit:10;" x1="116.017" y1="319.723" x2="111.468" y2="351.256"/>
		
			<line style="fill:none;stroke:#263238;stroke-linecap:round;stroke-linejoin:round;stroke-miterlimit:10;" x1="145.858" y1="396.786" x2="143.33" y2="414.304"/>
		
			<line style="fill:none;stroke:#263238;stroke-linecap:round;stroke-linejoin:round;stroke-miterlimit:10;" x1="329.863" y1="125.202" x2="327.335" y2="142.72"/>
		
			<line style="fill:none;stroke:#263238;stroke-linecap:round;stroke-linejoin:round;stroke-miterlimit:10;" x1="154.676" y1="240.176" x2="152.148" y2="257.695"/>
		
			<line style="fill:none;stroke:#263238;stroke-linecap:round;stroke-linejoin:round;stroke-miterlimit:10;" x1="100.944" y1="284.265" x2="98.417" y2="301.783"/>
		
			<line style="fill:none;stroke:#263238;stroke-linecap:round;stroke-linejoin:round;stroke-miterlimit:10;" x1="259.009" y1="334.776" x2="256.482" y2="352.294"/>
		
			<line style="fill:none;stroke:#263238;stroke-linecap:round;stroke-linejoin:round;stroke-miterlimit:10;" x1="205.613" y1="407.514" x2="203.086" y2="425.033"/>
		
			<line style="fill:none;stroke:#263238;stroke-linecap:round;stroke-linejoin:round;stroke-miterlimit:10;" x1="333.184" y1="254.31" x2="330.656" y2="271.828"/>
		
			<line style="fill:none;stroke:#263238;stroke-linecap:round;stroke-linejoin:round;stroke-miterlimit:10;" x1="356.889" y1="197.101" x2="354.362" y2="214.62"/>
		
			<line style="fill:none;stroke:#263238;stroke-linecap:round;stroke-linejoin:round;stroke-miterlimit:10;" x1="107.459" y1="172.736" x2="104.932" y2="190.254"/>
		
			<line style="fill:none;stroke:#263238;stroke-linecap:round;stroke-linejoin:round;stroke-miterlimit:10;" x1="299.28" y1="296.367" x2="296.753" y2="313.885"/>
		
			<line style="fill:none;stroke:#263238;stroke-linecap:round;stroke-linejoin:round;stroke-miterlimit:10;" x1="340.215" y1="307.717" x2="337.688" y2="325.235"/>
		
			<line style="fill:none;stroke:#263238;stroke-linecap:round;stroke-linejoin:round;stroke-miterlimit:10;" x1="311.461" y1="392.984" x2="308.934" y2="410.503"/>
		
			<line style="fill:none;stroke:#263238;stroke-linecap:round;stroke-linejoin:round;stroke-miterlimit:10;" x1="264.03" y1="133.197" x2="261.502" y2="150.715"/>
		
			<line style="fill:none;stroke:#263238;stroke-linecap:round;stroke-linejoin:round;stroke-miterlimit:10;" x1="387.589" y1="152.888" x2="385.061" y2="170.407"/>
		
			<line style="fill:none;stroke:#263238;stroke-linecap:round;stroke-linejoin:round;stroke-miterlimit:10;" x1="376.974" y1="226.466" x2="374.446" y2="243.984"/>
		
			<line style="fill:none;stroke:#263238;stroke-linecap:round;stroke-linejoin:round;stroke-miterlimit:10;" x1="402.628" y1="302.545" x2="400.101" y2="320.063"/>
		
			<line style="fill:none;stroke:#263238;stroke-linecap:round;stroke-linejoin:round;stroke-miterlimit:10;" x1="389.358" y1="357.392" x2="386.831" y2="374.911"/>
		
			<line style="fill:none;stroke:#263238;stroke-linecap:round;stroke-linejoin:round;stroke-miterlimit:10;" x1="357.65" y1="267.474" x2="355.123" y2="284.993"/>
		
			<line style="fill:none;stroke:#263238;stroke-linecap:round;stroke-linejoin:round;stroke-miterlimit:10;" x1="300.885" y1="148.964" x2="298.358" y2="166.482"/>
		
			<line style="fill:none;stroke:#263238;stroke-linecap:round;stroke-linejoin:round;stroke-miterlimit:10;" x1="261.526" y1="189.979" x2="258.999" y2="207.498"/>
		
			<line style="fill:none;stroke:#263238;stroke-linecap:round;stroke-linejoin:round;stroke-miterlimit:10;" x1="309.585" y1="185.422" x2="307.058" y2="202.941"/>
		
			<line style="fill:none;stroke:#263238;stroke-linecap:round;stroke-linejoin:round;stroke-miterlimit:10;" x1="178.94" y1="215.779" x2="176.413" y2="233.298"/>
		
			<line style="fill:none;stroke:#263238;stroke-linecap:round;stroke-linejoin:round;stroke-miterlimit:10;" x1="167.624" y1="289.255" x2="165.097" y2="306.774"/>
		
			<line style="fill:none;stroke:#263238;stroke-linecap:round;stroke-linejoin:round;stroke-miterlimit:10;" x1="211.743" y1="315.65" x2="209.216" y2="333.168"/>
		
			<line style="fill:none;stroke:#263238;stroke-linecap:round;stroke-linejoin:round;stroke-miterlimit:10;" x1="364.013" y1="331.179" x2="358.756" y2="367.618"/>
		
			<line style="fill:none;stroke:#263238;stroke-linecap:round;stroke-linejoin:round;stroke-miterlimit:10;" x1="407.36" y1="185.214" x2="402.103" y2="221.652"/>
		
			<line style="fill:none;stroke:#263238;stroke-linecap:round;stroke-linejoin:round;stroke-miterlimit:10;" x1="192.393" y1="329.41" x2="187.136" y2="365.848"/>
		
			<line style="fill:none;stroke:#263238;stroke-linecap:round;stroke-linejoin:round;stroke-miterlimit:10;" x1="139.909" y1="347.49" x2="137.382" y2="365.009"/>
	</g>
</g>
</svg>
